<svg width="64" height="64" viewBox="0 0 64 64" xmlns="http://www.w3.org/2000/svg">
  <defs>
    <linearGradient id="bgGrad" x1="0%" y1="0%" x2="100%" y2="100%">
      <stop offset="0%" style="stop-color:#2E3440;stop-opacity:1" />
      <stop offset="100%" style="stop-color:#3B4252;stop-opacity:1" />
    </linearGradient>
  </defs>
  
  <!-- 背景 -->
  <rect width="64" height="64" rx="12" ry="12" fill="url(#bgGrad)"/>
  
  <!-- React 原子结构 -->
  <circle cx="32" cy="32" r="3" fill="#61DAFB"/>
  
  <!-- 轨道 -->
  <ellipse cx="32" cy="32" rx="18" ry="7" fill="none" stroke="#61DAFB" stroke-width="1.5" opacity="0.8"/>
  <ellipse cx="32" cy="32" rx="18" ry="7" fill="none" stroke="#61DAFB" stroke-width="1.5" opacity="0.8" transform="rotate(60 32 32)"/>
  <ellipse cx="32" cy="32" rx="18" ry="7" fill="none" stroke="#61DAFB" stroke-width="1.5" opacity="0.8" transform="rotate(120 32 32)"/>
  
  <!-- 复杂度指示条 -->
  <g transform="translate(45, 12)">
    <rect x="0" y="8" width="2" height="4" fill="#A3BE8C" rx="1"/>
    <rect x="3" y="5" width="2" height="7" fill="#EBCB8B" rx="1"/>
    <rect x="6" y="2" width="2" height="10" fill="#BF616A" rx="1"/>
  </g>
  
  <!-- 复杂度数字 -->
  <g transform="translate(12, 18)">
    <circle cx="0" cy="0" r="4" fill="#A3BE8C" opacity="0.9"/>
    <text x="0" y="1" font-family="Arial, sans-serif" font-size="5" font-weight="bold" fill="#2E3440" text-anchor="middle">5</text>
  </g>
  
  <g transform="translate(50, 28)">
    <circle cx="0" cy="0" r="4" fill="#BF616A" opacity="0.9"/>
    <text x="0" y="1" font-family="Arial, sans-serif" font-size="4" font-weight="bold" fill="#ECEFF4" text-anchor="middle">12</text>
  </g>
  
  <!-- JSX 标识 -->
  <text x="16" y="52" font-family="Arial, monospace" font-size="6" font-weight="bold" fill="#61DAFB" opacity="0.7">&lt;/&gt;</text>
</svg>
