<svg width="128" height="128" viewBox="0 0 128 128" xmlns="http://www.w3.org/2000/svg">
  <defs>
    <linearGradient id="bgGradient" x1="0%" y1="0%" x2="100%" y2="100%">
      <stop offset="0%" style="stop-color:#2E3440;stop-opacity:1" />
      <stop offset="100%" style="stop-color:#3B4252;stop-opacity:1" />
    </linearGradient>
    <linearGradient id="reactGradient" x1="0%" y1="0%" x2="100%" y2="100%">
      <stop offset="0%" style="stop-color:#61DAFB;stop-opacity:1" />
      <stop offset="100%" style="stop-color:#21759B;stop-opacity:1" />
    </linearGradient>
  </defs>
  
  <!-- 背景圆角矩形 -->
  <rect width="128" height="128" rx="20" ry="20" fill="url(#bgGradient)" stroke="#434C5E" stroke-width="2"/>
  
  <!-- React 原子结构 - 中心原子 -->
  <circle cx="64" cy="64" r="6" fill="#61DAFB"/>
  
  <!-- React 原子结构 - 轨道椭圆 -->
  <ellipse cx="64" cy="64" rx="35" ry="14" fill="none" stroke="url(#reactGradient)" stroke-width="2.5" opacity="0.8"/>
  <ellipse cx="64" cy="64" rx="35" ry="14" fill="none" stroke="url(#reactGradient)" stroke-width="2.5" opacity="0.8" transform="rotate(60 64 64)"/>
  <ellipse cx="64" cy="64" rx="35" ry="14" fill="none" stroke="url(#reactGradient)" stroke-width="2.5" opacity="0.8" transform="rotate(120 64 64)"/>
  
  <!-- 复杂度指示器 - 条形图风格 -->
  <g transform="translate(85, 25)">
    <!-- 复杂度条 - 绿色 (低复杂度) -->
    <rect x="0" y="15" width="4" height="8" fill="#A3BE8C" rx="2"/>
    <rect x="6" y="10" width="4" height="13" fill="#EBCB8B" rx="2"/>
    <rect x="12" y="5" width="4" height="18" fill="#BF616A" rx="2"/>
    
    <!-- 数字标识 -->
    <text x="8" y="32" font-family="'SF Pro Display', 'Segoe UI', sans-serif" font-size="8" font-weight="600" fill="#E5E9F0" text-anchor="middle">CC</text>
  </g>
  
  <!-- 代码分析指示器 -->
  <g transform="translate(20, 85)">
    <!-- 代码行 -->
    <rect x="0" y="0" width="12" height="2" fill="#5E81AC" opacity="0.6" rx="1"/>
    <rect x="0" y="4" width="8" height="2" fill="#5E81AC" opacity="0.6" rx="1"/>
    <rect x="0" y="8" width="10" height="2" fill="#5E81AC" opacity="0.6" rx="1"/>
    <rect x="0" y="12" width="6" height="2" fill="#5E81AC" opacity="0.6" rx="1"/>
    
    <!-- 分析图标 -->
    <circle cx="20" cy="6" r="3" fill="none" stroke="#D08770" stroke-width="1.5"/>
    <path d="M 18 6 L 20 8 L 22 4" fill="none" stroke="#D08770" stroke-width="1.5" stroke-linecap="round"/>
  </g>
  
  <!-- React JSX 标识 -->
  <g transform="translate(90, 95)">
    <text font-family="'SF Pro Display', 'Fira Code', monospace" font-size="10" font-weight="700" fill="#61DAFB" opacity="0.8">&lt;/&gt;</text>
  </g>
  
  <!-- 装饰性数字 - 显示复杂度 -->
  <g transform="translate(25, 35)">
    <circle cx="0" cy="0" r="8" fill="#A3BE8C" opacity="0.9"/>
    <text x="0" y="2" font-family="'SF Pro Display', 'Segoe UI', sans-serif" font-size="8" font-weight="700" fill="#2E3440" text-anchor="middle">5</text>
  </g>
  
  <g transform="translate(100, 50)">
    <circle cx="0" cy="0" r="8" fill="#EBCB8B" opacity="0.9"/>
    <text x="0" y="2" font-family="'SF Pro Display', 'Segoe UI', sans-serif" font-size="8" font-weight="700" fill="#2E3440" text-anchor="middle">8</text>
  </g>
  
  <g transform="translate(35, 100)">
    <circle cx="0" cy="0" r="8" fill="#BF616A" opacity="0.9"/>
    <text x="0" y="2" font-family="'SF Pro Display', 'Segoe UI', sans-serif" font-size="7" font-weight="700" fill="#ECEFF4" text-anchor="middle">12</text>
  </g>
</svg>
